<svg xmlns="http://www.w3.org/2000/svg" width="34.902" height="26.977" viewBox="0 0 34.902 26.977">
  <g id="logo" transform="translate(-1.923 -1.823)">
    <path id="Path_12" data-name="Path 12" d="M36.8,15.1a7.413,7.413,0,0,0-.6-3.6L34.1,6.3a7.115,7.115,0,0,0-2.1-3,6.407,6.407,0,0,0-3-1.4,5.7,5.7,0,0,0-3.4.5L19.3,5,12.9,2.6a6.666,6.666,0,0,0-3.4-.4,6.9,6.9,0,0,0-3,1.4,7.549,7.549,0,0,0-2,3l-2,5.2A6.36,6.36,0,0,0,2,15.4v.1H2a7.413,7.413,0,0,0,.6,3.6l2.1,5.2a7.115,7.115,0,0,0,2.1,3,6.407,6.407,0,0,0,3,1.4c.3,0,.6.1.9.1a6.963,6.963,0,0,0,2.5-.5l6.3-2.6,6.4,2.4a6.666,6.666,0,0,0,3.4.4,6.9,6.9,0,0,0,3-1.4,7.549,7.549,0,0,0,2-3l2-5.2a9.719,9.719,0,0,0,.5-3.8Zm-3.8,5-1.1,3a5.324,5.324,0,0,1-2.2,2.7,3.733,3.733,0,0,1-3.1.1l-4-1.5,10.2-4.1C32.9,20.2,33,20.2,33,20.1ZM6,20.4l10.3,3.9-4,1.6h0a3.733,3.733,0,0,1-3.1-.1A5.1,5.1,0,0,1,7,23.2L5.8,20.3C5.9,20.4,5.9,20.4,6,20.4ZM12.1,4.7l4,1.5L6,10.3a.349.349,0,0,0-.2.1l1.1-3A4.5,4.5,0,0,1,9,4.8,3.733,3.733,0,0,1,12.1,4.7Zm14.3-.1a3.733,3.733,0,0,1,3.1.1,4.853,4.853,0,0,1,2.3,2.6L33,10.2a.349.349,0,0,1-.2-.1L22.5,6.2l3.9-1.6Zm7.8,10.6a1.445,1.445,0,0,1-.2.7,3.682,3.682,0,0,1-2.2,2.2l-12.4,5L6.9,18.3a3.521,3.521,0,0,1-2.2-2.1,6.373,6.373,0,0,1-.2-.7,2.354,2.354,0,0,1,.2-.8,3.682,3.682,0,0,1,2.2-2.2l12.4-5,12.5,4.8A3.682,3.682,0,0,1,34,14.5,1.166,1.166,0,0,1,34.2,15.2Z" fill="#fff"/>
  </g>
</svg>
